<?xml version="1.0" encoding="UTF-8" standalone="no"?>
<!-- Created with Inkscape (http://www.inkscape.org/) -->

<svg
   width="500"
   height="200"
   viewBox="0 0 500 200"
   version="1.1"
   id="svg1"
   inkscape:version="1.3.2 (091e20ef0f, 2023-11-25, custom)"
   sodipodi:docname="Glitch-RabbitChaosAdventure.svg"
   xmlns:inkscape="http://www.inkscape.org/namespaces/inkscape"
   xmlns:sodipodi="http://sodipodi.sourceforge.net/DTD/sodipodi-0.dtd"
   xmlns="http://www.w3.org/2000/svg"
   xmlns:svg="http://www.w3.org/2000/svg">
  <sodipodi:namedview
     id="namedview1"
     pagecolor="#ffffff"
     bordercolor="#666666"
     borderopacity="1.0"
     inkscape:showpageshadow="2"
     inkscape:pageopacity="0.0"
     inkscape:pagecheckerboard="true"
     inkscape:deskcolor="#d1d1d1"
     inkscape:document-units="mm"
     inkscape:zoom="1.7069614"
     inkscape:cx="262.74759"
     inkscape:cy="38.958116"
     inkscape:window-width="1920"
     inkscape:window-height="1038"
     inkscape:window-x="0"
     inkscape:window-y="42"
     inkscape:window-maximized="1"
     inkscape:current-layer="layer1"
     showgrid="false" />
  <defs
     id="defs1" />
  <g
     inkscape:label="Ebene 1"
     inkscape:groupmode="layer"
     id="layer1">
    <path
       id="path114"
       style="fill-rule:evenodd;stroke-width:0.0377953"
       d="m 39.840704,91.070312 c -1.2459,0 -2.109375,0.287865 -2.109375,1.597657 0,1.309782 0.927368,1.597656 2.109375,1.597656 h 0.478515 v 8.593755 h 3.195313 v -0.25586 h 3.066406 c 0.02456,0.009 0.05369,0.0245 0.08398,0.0449 0.09087,0.0614 0.199513,0.16121 0.285156,0.21094 h 4.824218 c -0.402526,-0.4311 -0.786017,-0.88793 -1.232421,-1.27735 2.332065,-1.27786 3.451172,-2.811615 3.451171,-4.824218 0,-3.354332 -2.876306,-5.687499 -7.029296,-5.6875 z m 3.673828,3.195313 h 3.578125 c 2.044551,0 3.513672,1.022807 3.513672,2.396484 0,1.597311 -1.980589,2.746094 -4.664063,2.746094 h -2.427734 z" />
    <path
       id="path115"
       style="fill:#000000;fill-rule:evenodd;stroke-width:0.0377953"
       d="m 292.35933,91.070312 c -1.182,0 -2.13867,0.223971 -2.13867,1.597657 0,1.341731 0.98862,1.597656 2.13867,1.597656 h 2.01368 l -3.47657,8.593755 h 13.22071 l -4.85743,-11.789068 z m 5.08008,4.25 2.49219,6.132808 h -5.01562 z" />
    <path
       d="m 414.93941,95.734375 c -1.18202,0 -2.10937,0.287868 -2.10937,1.597656 0,0.606982 0.35148,1.597656 1.78906,1.597656 h 0.32031 1.11719 v 3.929693 h 3.19531 v -7.125005 z"
       style="fill:#000000;fill-rule:evenodd;stroke-width:0.0377953"
       id="path127" />
    <path
       d="m 405.48238,95.734375 c -1.24591,0 -2.10742,0.287868 -2.10742,1.597656 0,0.926439 0.70169,1.597656 1.75586,1.597656 h 0.86328 v 3.929693 h 3.19336 v -7.125005 z"
       style="fill:#000000;fill-rule:evenodd;stroke-width:0.0377953"
       id="path126" />
    <path
       d="m 339.03316,95.734375 c -1.18201,0 -2.10742,0.28786 -2.10742,1.597656 0,1.3098 0.92541,1.597656 2.10742,1.597656 h 0.32031 l -1.95507,3.929693 h 3.49023 l 1.94727,-3.929693 h 0.51172 c 1.18201,0 2.10742,-0.287856 2.10742,-1.597656 0,-1.309796 -0.89347,-1.597656 -2.10742,-1.597656 z"
       style="fill:#000000;fill-rule:evenodd;stroke-width:0.0377953"
       id="path125" />
    <path
       d="m 328.39644,95.734375 c -1.18201,0 -2.10937,0.287868 -2.10937,1.597656 0,1.309796 0.92736,1.597656 2.10937,1.597656 h 0.44727 l 1.94726,3.929693 h 3.6543 l -1.99219,-3.929693 h 0.16016 c 1.18202,0 2.10742,-0.28786 2.10742,-1.597656 0,-1.309788 -0.89346,-1.597656 -2.10742,-1.597656 z"
       style="fill:#000000;fill-rule:evenodd;stroke-width:0.0377953"
       id="path124" />
    <path
       d="m 120.93551,95.734375 c -1.18202,0 -2.14063,0.223975 -2.14063,1.597656 0,1.277849 0.95861,1.597656 2.14063,1.597656 h 2.49218 v 3.929693 h 3.19532 v -7.125005 z"
       style="fill-rule:evenodd;stroke-width:0.0377953"
       id="path123" />
    <path
       d="m 436.34176,95.351562 c -1.56537,0 -2.77827,0.544168 -5.33399,2.460938 v -2.078125 h -4.3125 c -1.40564,0 -2.10937,0.607325 -2.10937,1.597656 0,1.213957 0.86346,1.597656 2.10937,1.597656 h 1.11719 v 3.929693 h 3.19531 v -1.05469 c 3.03491,-2.491818 4.24921,-3.257815 5.27149,-3.257815 1.05423,0 1.43795,1.150391 2.49218,1.150391 0.86255,0 1.59571,-0.736368 1.59571,-1.63086 0,-1.469521 -2.36418,-2.714843 -4.02539,-2.714844 z"
       style="fill:#000000;fill-rule:evenodd;stroke-width:0.0377953"
       id="path122" />
    <path
       d="m 450.59176,95.320312 c -4.66411,0 -8.2422,3.257725 -8.24219,7.474608 0,0.0223 0.008,0.0422 0.008,0.0645 h 16.5 c -0.0522,-4.357782 -3.5394,-7.539067 -8.26367,-7.539068 z m 0.0312,3.19336 c 2.33208,0 4.18423,1.119933 4.69531,2.876958 h -9.39258 c 0.4792,-1.725078 2.36518,-2.876958 4.69727,-2.876958 z"
       style="fill:#000000;fill-rule:evenodd;stroke-width:0.0377953"
       id="path121" />
    <path
       d="m 375.22847,95.320312 c -1.75704,0 -2.84157,0.479698 -4.375,1.949219 v -1.535156 h -3.0039 c -1.2459,0 -2.14063,0.447593 -2.14063,1.597656 0,1.022278 0.70331,1.565712 1.94922,1.597656 v 3.929693 h 3.19531 v -2.17188 c 1.50148,-1.629255 2.52266,-2.173828 3.99219,-2.173828 1.98068,0 2.875,0.735442 2.875,2.300778 v 2.04493 h 3.19531 v -2.17188 c 0,-3.514079 -2.49286,-5.367187 -5.6875,-5.367188 z"
       style="fill:#000000;fill-rule:evenodd;stroke-width:0.0377953"
       id="path120" />
    <path
       d="m 354.75191,95.320312 c -4.66416,0 -8.24218,3.257725 -8.24219,7.474608 0,0.0223 0.008,0.0422 0.008,0.0645 h 16.5 c -0.0522,-4.357782 -3.53946,-7.539067 -8.26367,-7.539068 z m 0.0312,3.19336 c 2.33208,0 4.18612,1.119933 4.69727,2.876958 h -9.39258 c 0.47919,-1.725078 2.36322,-2.876958 4.69531,-2.876958 z"
       style="fill:#000000;fill-rule:evenodd;stroke-width:0.0377953"
       id="path119" />
    <path
       d="m 66.131719,95.320312 c -1.597312,0 -3.960727,0.413943 -5.49414,0.957032 -0.638922,0.223625 -0.958985,0.670923 -0.958985,1.341797 0,0.926439 0.671915,1.630859 1.566407,1.630859 1.022278,0 2.682295,-0.736328 4.982421,-0.736328 2.044555,0 2.970704,0.480219 2.970704,1.566408 v 0.73437 c -1.309796,-0.22362 -2.299988,-0.31836 -3.322266,-0.31836 -2.917151,0 -5.134819,0.97663 -6.433594,2.36329 h 12.982422 v -2.81055 c 0,-2.971009 -2.363589,-4.728517 -6.292969,-4.728518 z"
       style="fill-rule:evenodd;stroke-width:0.0377953"
       id="path117" />
    <path
       d="m 389.02926,90.814453 c -1.34175,0 -1.59571,0.991258 -1.59571,2.109375 v 2.810547 h -1.11914 c -1.24591,0 -2.10742,0.287868 -2.10742,1.597656 0,1.277849 0.9254,1.597656 2.10742,1.597656 h 1.11914 v 3.929693 h 3.19336 v -3.929693 h 5.78321 c 1.18201,0 2.10742,-0.319807 2.10742,-1.597656 0,-1.309788 -0.89347,-1.597656 -2.10742,-1.597656 h -5.78321 v -2.810547 c 0,-1.245902 -0.28786,-2.109375 -1.59765,-2.109375 z"
       style="fill:#000000;fill-rule:evenodd;stroke-width:0.0377953"
       id="path113" />
    <path
       d="m 138.71377,90.814453 c -1.34175,0 -1.59766,0.991258 -1.59766,2.109375 v 2.810547 h -1.11719 c -1.24591,0 -2.10937,0.287868 -2.10937,1.597656 0,1.277849 0.92735,1.597656 2.10937,1.597656 h 1.11719 v 3.929693 h 3.19531 v -3.929693 h 5.7832 c 1.18202,0 2.10743,-0.319807 2.10743,-1.597656 0,-1.309788 -0.89347,-1.597656 -2.10743,-1.597656 h -5.7832 v -2.810547 c 0,-1.245902 -0.28785,-2.109375 -1.59765,-2.109375 z"
       style="fill-rule:evenodd;stroke-width:0.0377953"
       id="path112" />
    <path
       d="m 320.37691,89.792969 c -1.24591,0 -2.10742,0.288557 -2.10742,1.566406 0,1.309795 0.89346,1.595703 2.10742,1.595703 h 0.51172 v 3.929688 c -1.37369,-1.086171 -2.87618,-1.597657 -4.79297,-1.597657 -4.95168,0 -7.92187,3.322993 -7.92187,7.412111 0,0.0548 0.0146,0.10561 0.0156,0.16016 h 3.21289 c -0.002,-0.0567 -0.0332,-0.10285 -0.0332,-0.16016 0,-2.26819 1.75556,-4.216798 4.72656,-4.216798 2.90713,0 4.79297,1.757488 4.79297,4.281248 0,0.0343 -0.0187,0.0617 -0.0195,0.0957 h 3.21484 V 89.792969 Z"
       style="fill:#000000;fill-rule:evenodd;stroke-width:0.0377953"
       id="path111" />
    <path
       d="m 122.40621,89.792969 v 3.355468 h 3.76953 v -3.355468 z"
       style="fill-rule:evenodd;stroke-width:0.0377953"
       id="path110" />
    <path
       d="m 96.993046,89.792969 c -1.182003,0 -2.109374,0.287861 -2.109374,1.597656 0,1.309795 0.895425,1.597656 2.109374,1.597656 h 0.509763 v 9.871099 h 3.234391 c -0.003,-0.0686 -0.0391,-0.12166 -0.0391,-0.19141 0,-2.30014 1.78882,-4.185548 4.75977,-4.185548 2.84322,0 4.72851,1.852768 4.72851,4.216798 0,0.0579 -0.0311,0.10298 -0.0332,0.16016 h 3.21484 c 6.9e-4,-0.0441 0.0117,-0.0846 0.0117,-0.12891 0,-4.121068 -2.97089,-7.443361 -7.89062,-7.443361 -1.91679,0 -3.41733,0.511486 -4.79102,1.597657 v -7.091797 z"
       style="fill-rule:evenodd;stroke-width:0.0377953"
       id="path109" />
    <path
       d="m 77.825079,89.792969 c -1.182009,0 -2.109375,0.287861 -2.109375,1.597656 0,1.309795 0.895419,1.597656 2.109375,1.597656 h 0.509765 v 9.871099 h 3.234375 c -0.003,-0.0686 -0.03906,-0.12166 -0.03906,-0.19141 0,-2.30014 1.788771,-4.185548 4.759765,-4.185548 2.84321,0 4.728516,1.852768 4.728516,4.216798 0,0.0579 -0.03106,0.10298 -0.0332,0.16016 h 3.216797 c 6.95e-4,-0.044 0.01172,-0.0847 0.01172,-0.12891 0,-4.121068 -2.972868,-7.443361 -7.892579,-7.443361 -1.91677,0 -3.417327,0.511486 -4.791015,1.597657 v -7.091797 z"
       style="fill-rule:evenodd;stroke-width:0.0377953"
       id="path108" />
    <path
       d="m 177.08295,97.857422 h -3.29883 c -0.10337,0.572037 -0.16406,1.164055 -0.16406,1.77539 v 2.107418 c 0,0.38686 0.0662,0.75005 0.11523,1.11915 h 3.20508 c -0.0804,-0.37469 -0.12499,-0.76724 -0.125,-1.18165 v -2.044918 c 0,-0.631521 0.10976,-1.217712 0.26758,-1.77539 z"
       style="fill-rule:evenodd;stroke-width:0.0377953"
       id="path107" />
    <path
       d="m 189.06927,97.857422 h -1.08203 c 0.15817,0.05114 0.30389,0.113281 0.52149,0.113281 0.22866,0 0.39037,-0.06043 0.56054,-0.113281 z"
       style="fill-rule:evenodd;stroke-width:0.0377953"
       id="path104" />
    <path
       d="m 207.27045,97.857422 h -12.50196 v 5.001958 h 3.19532 v -2.20508 c 1.82093,-1.757058 2.52391,-2.140628 4.02539,-2.140628 2.49181,0 2.81054,1.151719 2.81054,2.525388 v 1.82032 h 3.19532 v -2.23633 c 0,-1.058671 -0.26831,-1.982782 -0.72461,-2.765628 z"
       style="fill-rule:evenodd;stroke-width:0.0377953"
       id="path102" />
    <path
       d="m 225.96576,97.857422 h -12.14453 c 0.10859,0.800297 0.70936,1.392578 1.52148,1.392578 1.02229,0 2.6843,-0.736328 4.98438,-0.736328 2.04457,0 2.9707,0.480219 2.9707,1.566408 v 0.73437 c -1.3098,-0.22362 -2.29998,-0.31836 -3.32227,-0.31836 -2.91716,0 -5.13481,0.97663 -6.43359,2.36329 h 12.98242 v -2.81055 c 0,-0.834139 -0.20363,-1.56062 -0.55859,-2.191408 z"
       style="fill-rule:evenodd;stroke-width:0.0377953"
       id="path100" />
    <path
       d="m 245.83881,97.857422 h -12.39454 c -1.25856,1.297689 -2.0332,2.988738 -2.0332,4.906248 0,0.0328 0.0107,0.063 0.0117,0.0957 h 3.20703 c -8.4e-4,-0.034 -0.0215,-0.0615 -0.0215,-0.0957 0,-2.42792 2.20421,-4.249998 5.11133,-4.249998 2.77933,0 4.98437,1.885968 4.98437,4.249998 0,0.0342 -0.0206,0.0617 -0.0215,0.0957 h 3.20507 c 4.5e-4,-0.0327 0.01,-0.0629 0.01,-0.0957 0,-1.89153 -0.7928,-3.595289 -2.05859,-4.906248 z"
       style="fill-rule:evenodd;stroke-width:0.0377953"
       id="path98" />
    <path
       d="m 265.40326,97.857422 h -12.67578 c -0.35011,0.550864 -0.55078,1.167551 -0.55078,1.839844 0,1.450314 0.71352,2.449804 2.09179,3.162114 h 10.58203 c -0.29423,-0.29198 -0.62717,-0.55676 -1.01367,-0.76758 -2.71544,-1.53343 -8.14647,-0.98945 -8.14648,-2.458988 0,-0.575028 1.53479,-1.11914 3.16406,-1.11914 4.21686,0 3.13023,2.205078 4.95117,2.205078 1.3098,0 1.59766,-0.895418 1.59766,-2.109375 z"
       style="fill-rule:evenodd;stroke-width:0.0377953"
       id="path96" />
    <path
       d="m 43.343797,102.85938 v 3.64257 h -0.478516 c -1.001858,0 -1.812706,0.21212 -2.039063,1.07227 h 8.871094 c -0.21765,-0.83855 -0.989651,-1.07227 -2.041015,-1.07227 h -1.117188 v -3.64257 z"
       style="font-weight:bold;font-size:31.9464px;line-height:1.25;font-family:FreeMono;-inkscape-font-specification:'FreeMono Bold';letter-spacing:0px;stroke-width:2.81749"
       id="path129" />
    <path
       d="m 54.226609,107.57422 h 5.820313 c -0.217216,-0.83855 -0.987697,-1.07227 -2.039063,-1.07227 h -0.416016 c -0.942824,-1.50403 -1.841622,-2.62372 -2.792968,-3.64257 h -4.824219 c 1.091092,0.63306 2.828494,2.56884 4.251953,4.71484 z"
       style="font-weight:bold;font-size:31.9464px;line-height:1.25;font-family:FreeMono;-inkscape-font-specification:'FreeMono Bold';letter-spacing:0px;stroke-width:2.81749"
       id="path132" />
    <path
       d="M 61.628953,107.57422 H 78.002 c -0.21765,-0.83855 -0.989651,-1.07227 -2.041016,-1.07227 h -0.511719 v -3.64257 H 62.466843 c -0.834693,0.89115 -1.296875,1.94777 -1.296875,3.03515 0,0.59419 0.164023,1.16234 0.458985,1.67969 z m 7.080078,-4.14063 c 1.086175,0 2.269021,0.12794 3.546875,0.35157 v 1.59765 c -1.757048,1.08618 -3.546382,1.62891 -5.271484,1.62891 -1.373693,0 -2.427735,-0.54328 -2.427735,-1.24609 0,-1.21396 1.979993,-2.33204 4.152344,-2.33204 z"
       style="font-weight:bold;font-size:31.9464px;line-height:1.25;font-family:FreeMono;-inkscape-font-specification:'FreeMono Bold';letter-spacing:0px;stroke-width:2.81749"
       id="path134" />
    <path
       d="m 78.804734,107.57422 h 16.683594 c 1.091209,-1.26153 1.709631,-2.89862 1.738281,-4.71484 h -3.216797 c -0.08902,2.37046 -1.981434,4.08984 -4.695312,4.08984 -2.733577,0 -4.616764,-1.67779 -4.720703,-4.08984 h -3.234375 v 3.64257 h -0.509766 c -1.056101,0 -1.831378,0.21193 -2.044922,1.07227 z"
       style="font-weight:bold;font-size:31.9464px;line-height:1.25;font-family:FreeMono;-inkscape-font-specification:'FreeMono Bold';letter-spacing:0px;stroke-width:2.81749"
       id="path136" />
    <path
       d="m 97.972703,107.57422 h 16.681637 c 1.09078,-1.26153 1.70963,-2.89862 1.73828,-4.71484 h -3.21484 c -0.089,2.37046 -1.98143,4.08984 -4.69532,4.08984 -2.73356,0 -4.61676,-1.67779 -4.7207,-4.08984 h -3.23437 v 3.64257 h -0.50977 c -1.056098,0 -1.831374,0.21193 -2.044917,1.07227 z"
       style="font-weight:bold;font-size:31.9464px;line-height:1.25;font-family:FreeMono;-inkscape-font-specification:'FreeMono Bold';letter-spacing:0px;stroke-width:2.81749"
       id="path138" />
    <path
       d="m 119.37699,107.57422 h 15.07227 c -0.23552,-0.88066 -1.08799,-1.07227 -2.03906,-1.07227 h -3.89649 v -3.64257 h -3.19531 v 3.64257 h -3.89844 c -1.0561,0 -1.82985,0.21193 -2.04297,1.07227 z"
       style="font-weight:bold;font-size:31.9464px;line-height:1.25;font-family:FreeMono;-inkscape-font-specification:'FreeMono Bold';letter-spacing:0px;stroke-width:2.81749"
       id="path140" />
    <path
       d="m 140.53129,107.57422 h 12.80078 c 0.0414,-0.12009 0.0664,-0.24359 0.0664,-0.37109 0,-0.8945 -0.67066,-1.62891 -1.53321,-1.62891 -1.1181,0 -2.13936,1.4375 -5.78125,1.4375 -2.36401,0 -2.74804,-0.60635 -2.74804,-1.82031 v -2.33203 h -3.19531 v 2.93945 c 0,0.65578 0.13864,1.24833 0.39062,1.77539 z"
       style="font-weight:bold;font-size:31.9464px;line-height:1.25;font-family:FreeMono;-inkscape-font-specification:'FreeMono Bold';letter-spacing:0px;stroke-width:2.81749"
       id="path142" />
    <path
       d="m 178.45312,102.85938 h -3.20507 c 0.56634,4.26385 4.27913,7.2832 9.27734,7.2832 4.53639,0 7.57227,-2.26847 7.57227,-3.92969 0,-0.86255 -0.73511,-1.5957 -1.59766,-1.5957 -1.37369,0 -1.4703,2.33203 -5.87891,2.33203 -3.33626,0 -5.62847,-1.57611 -6.16797,-4.08984 z"
       style="font-weight:bold;font-size:31.9464px;line-height:1.25;font-family:FreeMono;-inkscape-font-specification:'FreeMono Bold';letter-spacing:0px;stroke-width:2.81749;fill:#000000"
       id="path40" />
    <path
       d="m 199.47656,102.85938 h -3.19531 v 3.64257 h -0.19141 c -1.15007,0 -2.10742,0.28591 -2.10742,1.59571 0,1.21397 0.89345,1.59765 2.10742,1.59765 h 3.57813 c 1.18202,0 2.14062,-0.28786 2.14062,-1.59765 0,-1.3098 -0.92665,-1.59571 -2.14062,-1.59571 h -0.19141 z"
       style="font-weight:bold;font-size:31.9464px;line-height:1.25;font-family:FreeMono;-inkscape-font-specification:'FreeMono Bold';letter-spacing:0px;stroke-width:2.81749;fill:#000000"
       id="path39" />
    <path
       d="m 209.50781,102.85938 h -3.19531 v 3.64257 h -0.19141 c -1.15007,0 -2.14062,0.25396 -2.14062,1.59571 0,1.27785 0.99055,1.59765 2.14062,1.59765 h 3.57813 c 1.18202,0 2.10937,-0.3198 2.10937,-1.59765 0,-1.27785 -0.86346,-1.59571 -2.10937,-1.59571 h -0.19141 z"
       style="font-weight:bold;font-size:31.9464px;line-height:1.25;font-family:FreeMono;-inkscape-font-specification:'FreeMono Bold';letter-spacing:0px;stroke-width:2.81749;fill:#000000"
       id="path36" />
    <path
       d="m 228.03711,102.85938 h -12.98242 c -0.8347,0.89116 -1.29883,1.94777 -1.29883,3.03515 0,2.36403 2.58926,4.3125 5.75195,4.3125 1.88483,0 3.76931,-0.44743 5.30274,-1.24609 v 0.73437 h 3.73828 c 1.18201,0 2.10742,-0.3198 2.10742,-1.59765 0,-1.27785 -0.86151,-1.59571 -2.10742,-1.59571 h -0.51172 z m -6.74024,0.57421 c 1.08618,0 2.26708,0.12794 3.54493,0.35157 v 1.59765 c -1.75705,1.08618 -3.54639,1.62891 -5.27149,1.62891 -1.3737,0 -2.42773,-0.54327 -2.42773,-1.24609 0,-1.21396 1.98195,-2.33204 4.15429,-2.33204 z"
       style="font-weight:bold;font-size:31.9464px;line-height:1.25;font-family:FreeMono;-inkscape-font-specification:'FreeMono Bold';letter-spacing:0px;stroke-width:2.81749;fill:#000000"
       id="path34" />
    <path
       d="m 249.39844,102.85938 h -3.20508 c -0.0617,2.34624 -2.22469,4.15234 -5.02734,4.15234 -2.80266,0 -4.9637,-1.8061 -5.0254,-4.15234 h -3.20703 c 0.057,4.10651 3.66852,7.34765 8.23243,7.34765 4.56389,0 8.17544,-3.24115 8.23242,-7.34765 z"
       style="font-weight:bold;font-size:31.9464px;line-height:1.25;font-family:FreeMono;-inkscape-font-specification:'FreeMono Bold';letter-spacing:0px;stroke-width:2.81749;fill:#000000"
       id="path30" />
    <path
       d="m 266.36328,102.85938 h -10.58203 c 1.02012,0.5272 2.36332,0.91336 4.26562,1.11718 0.95839,0.0958 4.0254,0.32036 4.0254,1.66211 0,0.73477 -1.69372,1.37305 -3.73829,1.37305 -1.72509,0 -3.06573,-0.41549 -3.99218,-1.24609 -0.28751,-0.95839 -0.79831,-1.4043 -1.62891,-1.4043 -1.34175,0 -1.63086,0.95861 -1.63086,2.14062 v 1.05274 c 0,1.11813 0.25716,2.10937 1.63086,2.10937 0.4153,0 0.67008,-0.0953 1.02148,-0.38281 1.27786,0.60698 2.90757,0.92578 4.72852,0.92578 4.12108,0 7.12305,-1.8843 7.12305,-4.5039 0,-1.06546 -0.44681,-2.07387 -1.22266,-2.84375 z"
       style="font-weight:bold;font-size:31.9464px;line-height:1.25;font-family:FreeMono;-inkscape-font-specification:'FreeMono Bold';letter-spacing:0px;stroke-width:2.81749;fill:#000000"
       id="path28" />
    <path
       d="m 293.1651,102.85938 -0.9082,2.24414 h 3.4707 l 0.17969,-0.45508 h 7.60351 l 0.17969,0.45508 h 3.61914 l -0.92383,-2.24414 z"
       style="font-weight:bold;font-size:31.9464px;line-height:1.25;font-family:FreeMono;-inkscape-font-specification:'FreeMono Bold';letter-spacing:0px;stroke-width:2.81749"
       id="path66" />
    <path
       d="m 322.40143,105.10352 h 3.95117 v -2.24414 h -3.21484 c -0.0195,0.84014 -0.28165,1.60511 -0.73633,2.24414 z"
       style="font-weight:bold;font-size:31.9464px;line-height:1.25;font-family:FreeMono;-inkscape-font-specification:'FreeMono Bold';letter-spacing:0px;stroke-width:2.81749"
       id="path74" />
    <path
       d="m 310.85846,105.10352 h 3.56836 c -0.45501,-0.63909 -0.72409,-1.40445 -0.75586,-2.24414 h -3.21289 c 0.0154,0.78783 0.17157,1.53281 0.40039,2.24414 z"
       style="font-weight:bold;font-size:31.9464px;line-height:1.25;font-family:FreeMono;-inkscape-font-specification:'FreeMono Bold';letter-spacing:0px;stroke-width:2.81749"
       id="path71" />
    <path
       d="m 338.54987,105.10352 h 3.49414 l 1.11328,-2.24414 h -3.49024 z"
       style="font-weight:bold;font-size:31.9464px;line-height:1.25;font-family:FreeMono;-inkscape-font-specification:'FreeMono Bold';letter-spacing:0px;stroke-width:2.81749"
       id="path78" />
    <path
       d="m 334.17096,105.10352 h 3.68164 l -1.13867,-2.24414 h -3.6543 z"
       style="font-weight:bold;font-size:31.9464px;line-height:1.25;font-family:FreeMono;-inkscape-font-specification:'FreeMono Bold';letter-spacing:0px;stroke-width:2.81749"
       id="path75" />
    <path
       d="m 349.18268,105.10352 h 3.5625 c -0.18798,-0.27338 -0.35585,-0.56706 -0.48438,-0.90235 h 13.03321 v -1.24609 c 0,-0.0331 -0.009,-0.0627 -0.01,-0.0957 h -16.5 c 0.007,0.80195 0.1669,1.5416 0.39844,2.24414 z"
       style="font-weight:bold;font-size:31.9464px;line-height:1.25;font-family:FreeMono;-inkscape-font-specification:'FreeMono Bold';letter-spacing:0px;stroke-width:2.81749"
       id="path79" />
    <path
       d="m 369.92682,105.10352 h 3.19531 v -2.24414 h -3.19531 z"
       style="font-weight:bold;font-size:31.9464px;line-height:1.25;font-family:FreeMono;-inkscape-font-specification:'FreeMono Bold';letter-spacing:0px;stroke-width:2.81749"
       id="path81" />
    <path
       d="m 379.98932,105.10352 h 3.19531 v -2.24414 h -3.19531 z"
       style="font-weight:bold;font-size:31.9464px;line-height:1.25;font-family:FreeMono;-inkscape-font-specification:'FreeMono Bold';letter-spacing:0px;stroke-width:2.81749"
       id="path83" />
    <path
       d="m 389.70221,105.10352 h 3.19336 v -2.24414 h -3.19336 z"
       style="font-weight:bold;font-size:31.9464px;line-height:1.25;font-family:FreeMono;-inkscape-font-specification:'FreeMono Bold';letter-spacing:0px;stroke-width:2.81749"
       id="path85" />
    <path
       d="m 417.95612,105.10352 h 3.56445 v -2.24414 h -3.19531 v 1.88476 c -0.13819,0.14616 -0.24195,0.23126 -0.36914,0.35938 z"
       style="font-weight:bold;font-size:31.9464px;line-height:1.25;font-family:FreeMono;-inkscape-font-specification:'FreeMono Bold';letter-spacing:0px;stroke-width:2.81749"
       id="path90" />
    <path
       d="m 408.29791,105.10352 h 3.19531 c -0.0221,-0.15309 -0.0371,-0.31297 -0.0371,-0.48633 v -1.75781 h -3.19336 v 1.85351 c 0,0.13835 0.0276,0.25734 0.0351,0.39063 z"
       style="font-weight:bold;font-size:31.9464px;line-height:1.25;font-family:FreeMono;-inkscape-font-specification:'FreeMono Bold';letter-spacing:0px;stroke-width:2.81749"
       id="path87" />
    <path
       d="m 430.08112,105.10352 h 3.19531 v -2.24414 h -3.19531 z"
       style="font-weight:bold;font-size:31.9464px;line-height:1.25;font-family:FreeMono;-inkscape-font-specification:'FreeMono Bold';letter-spacing:0px;stroke-width:2.81749"
       id="path91" />
    <path
       d="m 445.02252,105.10352 h 3.5625 c -0.18825,-0.27352 -0.35771,-0.56683 -0.48633,-0.90235 h 13.03516 v -1.24609 c 0,-0.0331 -0.009,-0.0627 -0.01,-0.0957 h -16.5 c 0.007,0.80195 0.16691,1.5416 0.39844,2.24414 z"
       style="font-weight:bold;font-size:31.9464px;line-height:1.25;font-family:FreeMono;-inkscape-font-specification:'FreeMono Bold';letter-spacing:0px;stroke-width:2.81749"
       id="path93" />
    <path
       id="path94"
       style="fill:#000000;fill-rule:evenodd;stroke-width:0.0377953"
       d="m 289.2333,105.10352 -0.56641,1.39843 c -1.18202,0 -2.14062,0.22202 -2.14062,1.59571 0,1.05423 0.70178,1.59765 2.10742,1.59765 h 4.25 c 1.18202,0 2.10742,-0.31982 2.10742,-1.59765 0,-1.34175 -0.98929,-1.59571 -2.10742,-1.59571 h -0.73438 l 0.55469,-1.39843 z m 11.43359,0 0.55469,1.39843 h -0.73438 c -1.2459,0 -2.10937,0.28591 -2.10937,1.59571 0,0.67088 0.32038,1.59765 2.10937,1.59765 h 4.43946 c 1.18202,0 2.10937,-0.31982 2.10937,-1.59765 0,-1.34175 -1.02376,-1.59571 -2.17383,-1.59571 l -0.57617,-1.39843 z m 7.16797,0 c 0.93714,2.91323 3.57338,5.03906 7.47461,5.03906 1.88483,0 3.13106,-0.41441 4.82422,-1.56446 v 1.11719 h 3.70508 c 1.18198,0 2.10937,-0.28788 2.10937,-1.59765 0,-1.27785 -0.8635,-1.59571 -2.10937,-1.59571 H 323.329 v -1.39843 h -3.95117 c -0.79764,1.12102 -2.19916,1.8457 -4.00391,1.8457 -1.78739,0 -3.17258,-0.72471 -3.9707,-1.8457 z m 23.3125,0 2.27539,4.59179 h 3.32227 l 2.27539,-4.59179 h -3.49414 l -0.34571,0.69531 -0.35156,-0.69531 z m 15.01172,0 c 1.0126,3.07247 4.01985,5.10351 8.02929,5.10351 1.37369,0 8.08204,-0.38414 8.08204,-2.65234 0,-0.8945 -0.67066,-1.59766 -1.53321,-1.59766 -1.24591,0 -3.29071,1.05469 -6.26172,1.05469 -2.31951,0 -3.86722,-0.61874 -4.7539,-1.9082 z m 20.74414,0 v 1.39843 h -0.19141 c -1.15007,0 -2.10937,0.28591 -2.10937,1.59571 0,1.21397 0.86346,1.59765 2.10937,1.59765 h 3.57813 c 1.11812,0 2.10742,-0.28788 2.10742,-1.59765 0,-1.34175 -0.9893,-1.59571 -2.10742,-1.59571 h -0.19141 v -1.39843 z m 10.0625,0 v 1.39843 c -1.24591,0 -1.94922,0.57343 -1.94922,1.59571 0,1.05423 0.70306,1.59765 2.14063,1.59765 h 2.84374 c 1.18201,0 2.10938,-0.31982 2.10938,-1.59765 0,-1.02228 -0.70331,-1.59571 -1.94922,-1.59571 v -1.39843 z m 9.71289,0 v 0.69531 c 0,2.71545 2.26828,4.4082 5.91016,4.4082 2.4279,0 7.34765,-1.08714 7.34765,-3.00391 0,-0.89449 -0.67263,-1.6289 -1.53515,-1.6289 -1.11812,0 -2.13939,1.4375 -5.78125,1.4375 -2.36403,0 -2.74805,-0.60635 -2.74805,-1.82031 v -0.0879 z m 18.5957,0 c 0.18348,3.25208 2.55086,5.00781 5.65039,5.00781 1.75705,0 2.77964,-0.44773 4.37696,-1.94922 v 1.5332 h 3.03515 c 1.11812,0 2.10742,-0.28788 2.10742,-1.59765 0,-1.02228 -0.70135,-1.59571 -1.94726,-1.59571 v -1.39843 h -3.56445 c -1.40192,1.41203 -2.22308,1.8125 -3.6875,1.8125 -1.7045,0 -2.5976,-0.58329 -2.77539,-1.8125 z m 21.78321,0 v 1.39843 h -1.85157 c -1.24591,0 -2.10937,0.28591 -2.10937,1.59571 0,1.21397 0.89541,1.59765 2.10937,1.59765 h 9.48828 c 1.18202,0 2.13868,-0.31982 2.13868,-1.59765 0,-1.3098 -0.92471,-1.59571 -2.13868,-1.59571 h -4.4414 v -1.39843 z m 14.9414,0 c 1.0126,3.07247 4.01984,5.10351 8.0293,5.10351 1.3737,0 8.08203,-0.38414 8.08203,-2.65234 0,-0.8945 -0.67064,-1.59766 -1.5332,-1.59766 -1.24591,0 -3.2907,1.05469 -6.26172,1.05469 -2.31919,0 -3.86669,-0.61913 -4.75391,-1.9082 z" />
    <path
       id="path105"
       style="fill-rule:evenodd;stroke-width:0.0377953"
       d="m 197.28233,89.792969 c -1.18195,0 -2.10938,0.287862 -2.10938,1.597656 0,1.309794 0.89548,1.597656 2.10938,1.597656 h 0.50976 v 4.869141 h 12.50196 c -0.92063,-1.579466 -2.6656,-2.537109 -4.92969,-2.53711 -1.66121,0 -3.09912,0.639432 -4.37695,1.949219 v -7.476562 z m -11.94922,0.830078 c -4.33132,0 -7.7645,3.023606 -8.52539,7.234375 h 3.29883 c 0.68041,-2.404444 2.71047,-4.039063 5.35547,-4.039063 0.99032,0 4.05665,0.382485 4.5039,2.458985 0.10603,0.583128 0.27429,1.330919 1.04492,1.580078 h 1.08203 c 0.80462,-0.24988 1.03516,-1.018486 1.03516,-1.994141 v -2.683593 c 0,-1.245899 -0.2859,-2.109375 -1.5957,-2.109376 -0.54309,0 -0.9265,0.192543 -1.3418,0.767579 l -0.32031,-0.128907 c -1.75704,-0.830598 -2.87595,-1.085937 -4.53711,-1.085937 z m 37.92187,4.697265 c -1.5973,0 -3.96266,0.413943 -5.49609,0.957032 -0.63892,0.223625 -0.95703,0.670923 -0.95703,1.341797 0,0.08531 0.032,0.157116 0.043,0.238281 h 12.14453 c -0.90934,-1.615934 -2.90819,-2.537109 -5.73438,-2.53711 z m 19.51758,0 c -2.57809,0 -4.7955,0.981003 -6.30469,2.53711 h 12.39454 c -1.49197,-1.545199 -3.65101,-2.537109 -6.08789,-2.53711 z m 19.00977,0 c -2.82508,0 -5.05044,0.993885 -6.03125,2.53711 h 12.67578 v -0.429688 c 0,-1.469519 -0.47966,-2.107421 -1.50195,-2.107422 -0.47919,0 -0.76592,0.223097 -1.02149,0.830079 -1.24591,-0.575036 -2.55572,-0.830078 -4.12109,-0.830079 z" />
    <path
       id="path143"
       style="fill:#000000;fill-rule:evenodd;stroke-width:0.0377953"
       d="m 38.180547,107.57422 c -0.0407,0.15467 -0.07031,0.3238 -0.07031,0.52344 0,0.67088 0.320383,1.59765 2.109375,1.59765 h 4.791016 c 1.245903,0 2.109375,-0.38368 2.109375,-1.59765 0,-0.19953 -0.02809,-0.36828 -0.06836,-0.52344 z m 13.400391,0 c 0.462589,0.69739 0.892768,1.4167 1.255859,2.12109 h 2.525391 c 1.245907,0 2.107422,-0.38368 2.107422,-1.59765 0,-0.19953 -0.02817,-0.36828 -0.06836,-0.52344 z m 7.402344,0 c 0.878559,1.54094 2.923265,2.63281 5.291015,2.63281 1.884835,0 3.769311,-0.44743 5.302735,-1.24609 v 0.73437 h 3.738281 c 1.182013,0 2.109375,-0.31982 2.109375,-1.59765 0,-0.19953 -0.02809,-0.36828 -0.06836,-0.52344 z m 17.175781,0 c -0.03838,0.15462 -0.06445,0.3239 -0.06445,0.52344 0,1.27783 0.927362,1.59765 2.109375,1.59765 h 3.705078 v -1.11719 c 1.661206,1.15005 2.939387,1.56446 4.824219,1.56446 2.635431,0 4.743491,-0.98929 6.109375,-2.56836 z m 19.167969,0 c -0.03838,0.15462 -0.06445,0.3239 -0.06445,0.52344 0,1.27783 0.927361,1.59765 2.109375,1.59765 h 3.705093 v -1.11719 c 1.66121,1.15005 2.93939,1.56446 4.82422,1.56446 2.63541,0 4.74207,-0.98929 6.10742,-2.56836 z m 21.404308,0 c -0.0383,0.15462 -0.0644,0.3239 -0.0644,0.52344 0,0.67088 0.31842,1.59765 2.10742,1.59765 h 10.99024 c 1.24591,0 2.10937,-0.38368 2.10937,-1.59765 0,-0.20046 -0.0289,-0.36876 -0.0703,-0.52344 z m 21.1543,0 c 0.79142,1.65534 2.75718,2.63281 5.51953,2.63281 2.26642,0 6.70089,-0.94763 7.28125,-2.63281 z" />
  </g>
</svg>
